ffmpeg version 2.8.11-0ubuntu0.16.04.1 Copyright (c) 2000-2017 the FFmpeg developers
  built with gcc 5.4.0 (Ubuntu 5.4.0-6ubuntu1~16.04.4) 20160609
  configuration: --prefix=/usr --extra-version=0ubuntu0.16.04.1 --build-suffix=-ffmpeg --toolchain=hardened --libdir=/usr/lib/x86_64-linux-gnu --incdir=/usr/include/x86_64-linux-gnu --cc=cc --cxx=g++ --enable-gpl --enable-shared --disable-stripping --disable-decoder=libopenjpeg --disable-decoder=libschroedinger --enable-avresample --enable-avisynth --enable-gnutls --enable-ladspa --enable-libass --enable-libbluray --enable-libbs2b --enable-libcaca --enable-libcdio --enable-libflite --enable-libfontconfig --enable-libfreetype --enable-libfribidi --enable-libgme --enable-libgsm --enable-libmodplug --enable-libmp3lame --enable-libopenjpeg --enable-libopus --enable-libpulse --enable-librtmp --enable-libschroedinger --enable-libshine --enable-libsnappy --enable-libsoxr --enable-libspeex --enable-libssh --enable-libtheora --enable-libtwolame --enable-libvorbis --enable-libvpx --enable-libwavpack --enable-libwebp --enable-libx265 --enable-libxvid --enable-libzvbi --enable-openal --enable-opengl --enable-x11grab --enable-libdc1394 --enable-libiec61883 --enable-libzmq --enable-frei0r --enable-libx264 --enable-libopencv
  libavutil      54. 31.100 / 54. 31.100
  libavcodec     56. 60.100 / 56. 60.100
  libavformat    56. 40.101 / 56. 40.101
  libavdevice    56.  4.100 / 56.  4.100
  libavfilter     5. 40.101 /  5. 40.101
  libavresample   2.  1.  0 /  2.  1.  0
  libswscale      3.  1.101 /  3.  1.101
  libswresample   1.  2.101 /  1.  2.101
  libpostproc    53.  3.100 / 53.  3.100
[mp3 @ 0x21428c0] Unknown attached picture mimetype: ('image/png', None), skipping.
[mp3 @ 0x21428c0] Skipping 0 bytes of junk at 17522.
Input #0, mp3, from 'jan-andrzej-morsztyn-cuda-milosci-przebog-jak-zyje-serca-juz-nie-majac.mp3':
  Metadata:
    title           : Jan Andrzej Morsztyn, Cuda miłości (Przebóg! Jak żyję, serca już nie mając?)
    artist          : Piotr Głowacki
    album           : Wolne Lektury
    encoder         : Lavf53.21.0
    genre           : Speech
    originator_reference: sv3q0cWrQYnaaaGk
    date            : 2008-09-26
    performer       : Jakub Kowalski
    album_artist    : Fundacja Nowoczesna Polska
    time_reference  : 31713743
    copyright       : 2008 Fundacja Nowoczesna Polska. Licensed to the public under http://creativecommons.org/licenses/by-sa/3.0/deed.pl verify at http://wolnelektury.pl/katalog/lektura/cuda-milosci-przebog-jak-zyje-serca-juz-nie-majac/
    creation_time   : 0009-36-41
    encoded_by      : Pro Tools
    publisher       : Fundacja Nowoczesna Polska
  Duration: 00:01:06.09, start: 0.000000, bitrate: 66 kb/s
    Stream #0:0: Audio: mp3, 44100 Hz, mono, s16p, 64 kb/s
Output #0, null, to 'pipe:':
  Metadata:
    title           : Jan Andrzej Morsztyn, Cuda miłości (Przebóg! Jak żyję, serca już nie mając?)
    artist          : Piotr Głowacki
    album           : Wolne Lektury
    publisher       : Fundacja Nowoczesna Polska
    genre           : Speech
    originator_reference: sv3q0cWrQYnaaaGk
    date            : 2008-09-26
    performer       : Jakub Kowalski
    album_artist    : Fundacja Nowoczesna Polska
    time_reference  : 31713743
    copyright       : 2008 Fundacja Nowoczesna Polska. Licensed to the public under http://creativecommons.org/licenses/by-sa/3.0/deed.pl verify at http://wolnelektury.pl/katalog/lektura/cuda-milosci-przebog-jak-zyje-serca-juz-nie-majac/
    encoded_by      : Pro Tools
    encoder         : Lavf56.40.101
    Stream #0:0: Audio: pcm_s16le, 44100 Hz, mono, s16, 705 kb/s
    Metadata:
      encoder         : Lavc56.60.100 pcm_s16le
Stream mapping:
  Stream #0:0 -> #0:0 (mp3 (native) -> pcm_s16le (native))
Press [q] to stop, [?] for help
[silencedetect @ 0x2155a60] silence_start: -0.00367347
[silencedetect @ 0x2155a60] silence_end: 0.731429 | silence_duration: 0.735102
[silencedetect @ 0x2155a60] silence_start: 2.08612
[silencedetect @ 0x2155a60] silence_end: 3.73551 | silence_duration: 1.64939
[silencedetect @ 0x2155a60] silence_start: 4.80286
[silencedetect @ 0x2155a60] silence_end: 7.47102 | silence_duration: 2.66816
[silencedetect @ 0x2155a60] silence_start: 7.91143
[silencedetect @ 0x2155a60] silence_end: 10.658 | silence_duration: 2.74653
[silencedetect @ 0x2155a60] silence_start: 11.3073
[silencedetect @ 0x2155a60] silence_end: 11.8073 | silence_duration: 0.5
[silencedetect @ 0x2155a60] silence_start: 13.162
[silencedetect @ 0x2155a60] silence_end: 15.6996 | silence_duration: 2.53755
[silencedetect @ 0x2155a60] silence_start: 17.9686
[silencedetect @ 0x2155a60] silence_end: 20.9763 | silence_duration: 3.00776
[silencedetect @ 0x2155a60] silence_start: 24.7082
[silencedetect @ 0x2155a60] silence_end: 25.8351 | silence_duration: 1.12694
[silencedetect @ 0x2155a60] silence_start: 26.9547
[silencedetect @ 0x2155a60] silence_end: 29.8318 | silence_duration: 2.87714
[silencedetect @ 0x2155a60] silence_start: 32.3359
[silencedetect @ 0x2155a60] silence_end: 34.6384 | silence_duration: 2.30245
[silencedetect @ 0x2155a60] silence_start: 36.9073
[silencedetect @ 0x2155a60] silence_end: 37.7992 | silence_duration: 0.891837
[silencedetect @ 0x2155a60] silence_start: 41.9751
[silencedetect @ 0x2155a60] silence_end: 44.0163 | silence_duration: 2.04122
[silencedetect @ 0x2155a60] silence_start: 46.9384
[silencedetect @ 0x2155a60] silence_end: 48.0914 | silence_duration: 1.15306
[silencedetect @ 0x2155a60] silence_start: 49.5767
[silencedetect @ 0x2155a60] silence_end: 51.3306 | silence_duration: 1.75388
[silencedetect @ 0x2155a60] silence_start: 53.2078
[silencedetect @ 0x2155a60] silence_end: 54.7527 | silence_duration: 1.5449
[silencedetect @ 0x2155a60] silence_start: 55.3759
[silencedetect @ 0x2155a60] silence_end: 56.32 | silence_duration: 0.944082
[silencedetect @ 0x2155a60] silence_start: 63.6567
size=N/A time=00:01:06.08 bitrate=N/A    
video:0kB audio:5692kB subtitle:0kB other streams:0kB global headers:0kB muxing overhead: unknown
